<svg width="329" height="229" viewBox="0 0 329 229" fill="none" xmlns="http://www.w3.org/2000/svg">
<path opacity="0.2" d="M41.2718 63.7635C41.2718 62.1615 42.1264 60.6812 43.5138 59.8802L115.764 18.1647C118.753 16.4387 122.49 18.5961 122.49 22.048V56.6041L41.2718 103.498V63.7635Z" fill="url(#paint0_linear_45_29875)"/>
<path d="M105.99 38.002C105.99 41.4756 108.047 43.121 110.607 41.6584C113.166 40.1959 115.223 36.1738 115.223 32.7002C115.223 29.2266 113.166 27.5812 110.607 29.0438C108.047 30.5064 105.99 34.5284 105.99 38.002Z" fill="#FFDAC4"/>
<path opacity="0.15" d="M101.694 36.4938L77.2875 50.6167V55.69L101.74 41.5671L101.694 36.4938Z" fill="#FEFEFE"/>
<path opacity="0.15" d="M101.694 46.686L49.6816 76.7143V81.879L101.694 51.8507V46.686Z" fill="#FEFEFE"/>
<path opacity="0.2" d="M206.268 14.8601C206.268 13.2574 207.123 11.7766 208.511 10.9758L280.761 -30.699C283.75 -32.4233 287.486 -30.2658 287.486 -26.8147V7.74519L206.268 54.6387V14.8601Z" fill="url(#paint1_linear_45_29875)"/>
<path opacity="0.15" d="M266.827 -12.1823L252.11 -3.6811V1.48357L266.827 -7.01757V-12.1823Z" fill="#FEFEFE"/>
<path opacity="0.15" d="M266.69 -1.98999L214.677 28.0383V33.203L266.69 3.17469V-1.98999Z" fill="#FEFEFE"/>
<path opacity="0.3" d="M153.931 66.8434C153.933 63.3905 150.195 61.2314 147.205 62.9579L2.28615 146.629C0.899582 147.43 0.0450592 148.909 0.0441437 150.51L-7.62939e-05 228.136L140.315 147.146L151.932 150.94C152.897 151.256 153.89 150.536 153.89 149.52L153.931 66.8434Z" fill="url(#paint2_linear_45_29875)"/>
<path d="M122.673 104C122.673 110.628 126.558 113.69 131.402 110.902C136.247 108.114 140.132 100.481 140.132 93.8996C140.132 87.2723 136.247 84.2101 131.402 86.9981C126.603 89.7861 122.673 97.4189 122.673 104Z" fill="#FFC9A8"/>
<path opacity="0.15" d="M114.354 101.441L80.6241 120.911V127.95L114.354 108.48V101.441Z" fill="#FEFEFE"/>
<path opacity="0.15" d="M114.354 115.564L13.6202 173.701V180.739L114.354 122.602V115.564Z" fill="#FEFEFE"/>
<path opacity="0.15" d="M114.354 129.687L35.6045 175.163V182.202L114.354 136.725V129.687Z" fill="#FEFEFE"/>
<path opacity="0.3" d="M174.73 84.6955C174.73 83.094 175.585 81.6144 176.973 80.8139L321.891 -2.81413C324.881 -4.53979 328.618 -2.38034 328.616 1.07224L328.575 73.5149L188.26 154.504L177.421 170.561C176.596 171.784 174.687 171.199 174.688 169.724L174.73 84.6955Z" fill="url(#paint3_linear_45_29875)"/>
<path d="M205.993 90.9287C205.993 97.5559 202.063 105.143 197.264 107.931C192.419 110.719 188.534 107.611 188.534 100.984C188.534 94.3565 192.465 86.7695 197.264 83.9815C202.063 81.2391 205.993 84.3471 205.993 90.9287Z" fill="#FFE7D8"/>
<path opacity="0.15" d="M214.312 78.8168L248.042 59.3464V66.385L214.312 85.8554V78.8168Z" fill="#FEFEFE"/>
<path opacity="0.15" d="M214.266 92.8941L315 34.7571V41.7957L214.312 99.9327L214.266 92.8941Z" fill="#FEFEFE"/>
<path opacity="0.15" d="M214.266 107.017L293.016 61.5403V68.5788L214.266 114.055V107.017Z" fill="#FEFEFE"/>
<path opacity="0.2" d="M264.542 132.063C261.799 133.617 259.606 137.457 259.606 140.656V154.596L250.373 159.898C247.631 161.452 245.437 165.291 245.437 168.445C245.437 171.598 247.631 172.878 250.373 171.324L259.606 165.977V179.917C259.606 183.07 261.799 184.35 264.542 182.796C267.284 181.242 269.478 177.403 269.478 174.249V160.309L278.71 155.007C281.453 153.453 283.646 149.614 283.646 146.46C283.646 143.307 281.453 142.027 278.71 143.581L269.478 148.883V134.943C269.524 131.743 267.284 130.464 264.542 132.063Z" fill="url(#paint4_linear_45_29875)"/>
<defs>
<linearGradient id="paint0_linear_45_29875" x1="72.7275" y1="43.0234" x2="91.048" y2="74.7641" gradientUnits="userSpaceOnUse">
<stop stop-color="white"/>
<stop offset="1" stop-color="white" stop-opacity="0"/>
</linearGradient>
<linearGradient id="paint1_linear_45_29875" x1="237.723" y1="-5.87533" x2="256.043" y2="25.8654" gradientUnits="userSpaceOnUse">
<stop stop-color="white"/>
<stop offset="1" stop-color="white" stop-opacity="0"/>
</linearGradient>
<linearGradient id="paint2_linear_45_29875" x1="87.8358" y1="61.6832" x2="67.9385" y2="223.067" gradientUnits="userSpaceOnUse">
<stop stop-color="white"/>
<stop offset="1" stop-color="white" stop-opacity="0"/>
</linearGradient>
<linearGradient id="paint3_linear_45_29875" x1="208.287" y1="49.9866" x2="287.756" y2="112.209" gradientUnits="userSpaceOnUse">
<stop stop-color="white"/>
<stop offset="1" stop-color="white" stop-opacity="0"/>
</linearGradient>
<linearGradient id="paint4_linear_45_29875" x1="255.01" y1="149.868" x2="278.94" y2="168.753" gradientUnits="userSpaceOnUse">
<stop stop-color="white"/>
<stop offset="1" stop-color="white" stop-opacity="0"/>
</linearGradient>
</defs>
</svg>
